<?xml version="1.0" encoding="UTF-8"?><svg xmlns="http://www.w3.org/2000/svg" viewBox="0 0 218.16 109.44"><defs><style>.cls-1{fill:#ff6b00;}.cls-2{fill:#58595b;}</style></defs><g id="Logo"><g id="Final_20_pms_orange"><path class="cls-1" d="M215.18,65.09c-.29-.12-.6-.2-.92-.23-.66-.06-1.25,.13-1.83,.42-.54,.27-.83,.72-1.16,1.23-.75,1.15-1.33,2.41-2.03,3.6-.98,1.66-2.2,3.16-3.45,4.62-1.19,1.39-2.55,2.63-3.82,3.94-.24,.25-.62,.44-.92,.27-.27-.15-.33-.51-.3-.82,.37-3.4,.65-6.82,1.11-10.22,.19-1.55,.39-3.04,.58-4.59,.26-2.2,.52-4.39,.78-6.59l2.13-16.41c.19-1.16,.26-3.36-1.23-4.65-.64-.58-1.42-.97-2.13-1.04-.78-.06-1.61,.13-2.26,.52-2.04,1.46-2.7,4.55-3.25,6.84-1.3,5.41-1.63,11.15-4.23,16.16-.52,1-1.12,1.96-1.82,2.85-.48,.61-1.01,1.2-1.67,1.62-.66,.41-1.46,.64-2.22,.49-.97-.2-1.73-.99-2.14-1.89s-.5-1.91-.54-2.89c-.2-4.8,.66-9.72,2.17-14.27,.39-1.16,.78-2.26,.9-3.42,.26-1.42,.26-3.42-1.04-4.65-1.16-1.16-3.04-1.62-4.52-1.16-1.75,.52-2.78,2.2-3.36,3.55-1.79,4.16-2.27,8.54-2.83,12.97-.38,2.97-1.16,5.75-2.66,8.35-.78,1.42-1.81,2.78-3.36,4.52-.58,.64-1.29,1.35-2.07,1.94-1.1,.78-2.01,1.1-2.98,.97-.97-.13-1.94-.78-2.51-1.87-.52-.9-.72-1.94-.84-2.84-.26-1.68-.39-3.49-.32-5.49,.06-2.01,0-3.94,.39-5.93,.7-3.51,6.11-17.38,7.3-21.04,1.2-3.69,2.37-7.41,3.17-11.21,.72-3.39,1.13-6.86,.99-10.33-.1-2.44-.62-5.13-2.59-6.58-1.54-1.13-3.69-1.21-5.45-.47-1.76,.74-3.14,2.19-4.1,3.84-.96,1.65-1.52,3.49-2.02,5.34-1.03,3.82-1.78,7.71-2.41,11.62-.61,3.8-1.24,7.58-1.85,11.38-.52,3.2-1.84,14.5-2.35,16.89-.53,2.46-1.56,4.84-2.69,7.07-1.21,2.38-2.34,4.8-3.68,7.12-.43,.75-.89,1.5-1.57,2.03-.68,.53-1.64,.78-2.42,.42-.94-.44-1.32-1.57-1.51-2.59-.71-3.89-.09-7.87,.65-11.71,.75-3.87,3.95-21.56,4.69-25.63,.87-4.75,2.17-9.45,2.56-14.28,.28-3.49,.82-7.86-1.79-10.65-1.03-1.23-2.78-1.42-4.01-1.23-1.55,.32-2.77,1.61-3.49,2.65-.9,1.16-1.68,2.52-2.33,4.2-1.04,2.59-1.68,5.49-2.33,8.21l-.26,1.16c-.76,3.43-1.3,6.92-1.7,10.42-.22,1.89-.39,3.77-.53,5.67-.07,.92-.17,1.85-.2,2.77-.02,.74,.06,1.49-.27,2.18-.11,.23-.26,.45-.46,.62-.73,.64-1.82,.54-2.8,.51-5.04-.15-9.44,2.69-12.19,6.77-1.61,2.26-2.52,4.91-3.49,7.49-.13,.46-.32,.9-.52,1.36-.45,1.29-1.16,2.97-2,4.59-.71,1.29-1.62,2.58-2.84,4.13-1.23,1.55-2.33,2.72-3.49,3.68-1.55,1.29-3.1,2.07-4.59,2.33-1.62,.32-3.49-.39-4.91-1.81-1.15-1.26-1.74-3.17-1.89-4.84-.04-.51-.03-1.07,.28-1.47,.44-.6,1.3-.64,2.04-.7,5.47-.39,10.36-4.04,12.36-9.14,1.23-3.04,1.61-6.27,1.1-9.37-.26-1.62-.84-3.1-1.68-4.33-.9-1.29-2.13-2.26-3.55-2.91-2.65-1.23-5.94-1.16-9.11,.06-5.17,2.07-8.53,6.66-10.21,14.02l-.19,.78c-1.03,4.39-2.07,8.98-5.23,12.14-1.16,1.1-2.33,1.49-3.29,1.29-.39-.06-.72-.32-.97-.71-.84-1.42,.07-4.78,1.36-8.98,.45-1.42,.84-2.78,.9-3.29,.07-1.68-.25-3.23-.97-4.46-.71-1.23-1.94-2.26-3.36-2.91-1.29-.58-2.78-.51-4.2-.51h-.45c-.39,0-.9,0-1.36-.13-.58-.13-1.1-.58-1.29-1.16-.19-.78,0-1.49,.13-2.07,.06-.19,.13-.45,.19-.65,.39-1.35-.26-2.91-1.49-3.68-1.23-.78-2.84-.9-4.2-.32-1.35,.64-2.52,1.68-3.29,3.1-.78,1.42-1.1,2.97-.91,4.33,.32,1.16,.65,2.84,.39,4.26-.52,2.52-2,4.59-3.49,6.65-.33,.45-.65,.97-.97,1.42-2.07,2.97-4.14,5.42-6.33,7.43-3.36,3.04-7.24,5.17-11.11,6.01-6.71,1.48-13.56-.53-17.18-6.6-2.04-3.42-2.86-7.43-3.16-11.4-.57-7.7,.8-15.52,3.85-22.6,2.94-6.83,7.31-13.67,15.41-14.52,3.15-.33,6.77,.76,8.18,3.6,1.03,2.07,.67,4.56,0,6.77-.66,2.22-1.59,4.41-1.63,6.72-.04,2.32,1.12,4.87,3.33,5.54,2.15,.65,4.48-.72,5.72-2.59,1.24-1.87,1.67-4.14,2.21-6.33,1.27-5.14,3.28-10.09,5.96-14.66,1.24-2.11,2.68-4.4,2.26-6.81-.3-1.73-1.64-3.24-3.33-3.75-1.68-.5-3.63,.02-4.84,1.3-1.21,1.29-1.81,3.31-3.48,3.88-1.54,.53-3.13-.48-4.56-1.25-5.35-2.88-12.02-2.78-17.64-.46-5.62,2.32-10.24,6.66-13.65,11.7C5.21,23.53,1.94,32.32,1.27,41.01c-.24,3.07-.27,6.25,0,9.31,.32,4.14,.9,7.69,1.94,10.85,1.23,3.81,2.84,7.11,4.91,9.82,2.39,3.1,5.3,5.43,8.46,6.72,3.36,1.35,7.04,2,10.73,1.87,3.49-.13,7.11-.97,10.6-2.58,3.03-1.36,6.07-3.36,9.23-6.07,2.78-2.32,5.36-5.04,7.56-8.01,1.48-2,2.81-4.12,3.95-6.33,.58-1.12,1.12-2.28,1.61-3.45,.4-.96,.78-1.92,1.8-2.37,.52-.39,1.36-.2,1.81,.13,.58,.32,1.04,.71,1.23,1.23,.39,1.03,.19,2.07-.07,2.97v.13c-.26,.9-.52,1.81-.84,2.71-1.23,3.81-2.13,7.3-1.42,10.72,.39,1.87,1.16,3.49,2.26,4.72,1.16,1.29,2.78,2.13,4.53,2.39,2.2,.33,4.56-.25,6.54-1.19,1.27-.61,2.51-1.41,3.58-2.36,.56-.5,1.08-1.05,1.54-1.63,.43-.54,.83-1.34,1.64-1.29,.39,.02,.72,.28,.95,.59,.23,.31,.37,.68,.52,1.03,2.04,4.69,6.99,7.56,12.03,7.56h.65c2.43,0,4.95-.83,7.08-1.95,2.43-1.28,4.32-3.12,6.33-4.95,.17-.16,.36-.33,.59-.38,.33-.07,.68,.12,.89,.38,.22,.26,.33,.59,.46,.9,1.25,3.05,4.15,5.36,7.4,5.9,3.25,.54,6.74-.71,8.91-3.19,.47-.54,.9-1.15,1.47-1.58,.57-.44,1.35-.69,2.02-.42,.93,.38,1.22,1.51,1.64,2.42,.98,2.12,3.21,3.37,5.49,3.38,2.62,0,5-1.34,6.88-3.08,1.77-1.63,3.17-3.61,4.67-5.48,.27-.33,.55-.68,.93-.88,.38-.2,.87-.25,1.22,0,.27,.2,.39,.54,.52,.84,1.49,3.61,5.26,5.88,9.11,5.81,3.73-.07,7.25-2,9.91-4.62,.84-.83,1.71-1.78,2.88-1.92,1.25-.14,1.85,1.02,2.29,1.96,.61,1.29,1.01,2.16,2.25,3.04,1.42,1.03,3.23,1.36,4.91,.9,1.55-.39,3.1-1.42,4.26-2.84,.65-.79,1.01-1.82,1.71-2.55,.78-.81,1.14,.25,1.21,.88,.12,1.06,.12,2.12,.07,3.19-.11,2.11-.46,4.2-.74,6.3-.08,.61-.17,1.25-.57,1.7-.55,.61-1.48,.68-2.29,.57-.98-.14-1.89-.21-2.87-.27l-1.23-.13c-1.81-.13-3.62-.32-5.49-.39h-1.68c-3.62,0-6.59,.45-9.24,1.42-4.33,1.68-7.69,5.1-9.04,9.18-.64,1.87-.78,3.87-.45,5.75,.32,1.81,1.16,3.62,2.52,5.23,2.39,2.84,6.14,4.65,10.33,4.91,3.68,.19,7.69-.58,11.63-2.33,7.62-3.3,13.3-9.82,15.24-17.51,0-.2,.13-.33,.26-.39,2.65-.9,5.11-2.2,7.3-3.81,2.2-1.68,4.2-3.62,5.88-5.82,.82-1.06,1.57-2.18,2.26-3.32,.67-1.11,1.21-2.3,1.85-3.43,.5-.9,.98-1.82,1.19-2.83,.2-1.01,.1-2.11-.48-2.96-.32-.47-.79-.84-1.32-1.06m-123.05-14.64c.16-.65,.35-1.28,.54-1.87,.53-1.62,1.3-3.17,2.32-4.53,.35-.46,.74-.92,1.23-1.24,.49-.32,1.09-.51,1.66-.41,.97,.17,1.65,1.14,1.81,2.11,.26,1.6-.37,3.55-1.04,4.99-.63,1.37-1.59,2.82-2.81,3.74-.52,.39-1.04,.78-1.62,1.04-.26,.07-.58,.26-1.03,.26h-.13c-.51,0-1.03-.26-1.16-.77-.18-1.06-.04-2.2,.22-3.3m38.79-1.67c-.05,.68-.22,1.36-.27,2.04-.06,.87-.1,1.74-.11,2.61-.02,1.47,.01,2.95,.12,4.42,.09,1.35,.41,2.69-.12,3.99-.64,1.74-1.61,3.29-2.91,4.33-.64,.52-1.35,1.03-2.19,1.42-.65,.32-1.42,.52-2.2,.52-.2,0-.32-.07-.52-.07-1.1,0-1.94-.84-2.39-1.61-.52-.78-.71-1.68-.91-2.46-.71-3.29-.45-6.78,.65-10.08,.74-1.99,1.85-3.92,3.44-5.36,1.39-1.26,3.19-2.12,5.07-2.14,.65,0,1.36,.11,1.82,.58,.38,.38,.53,.94,.53,1.47,0,.12,0,.24-.02,.35m57.82,41.79c-.11,.43-.51,.94-.7,1.26-.43,.74-.92,1.46-1.49,2.11-.84,.97-1.81,1.87-2.84,2.71-2.13,1.62-4.52,2.78-6.98,3.49-1.55,.39-3.04,.64-4.39,.64h-.32c-1.94-.06-3.55-.64-4.65-1.61-.51-.46-1.23-1.23-1.42-2.26-.13-.84,0-1.74,.45-2.71,.65-1.49,1.88-2.71,3.43-3.49,2.9-1.42,6.13-1.55,9.17-1.42,1.23,.06,2.39,.13,3.62,.2,.97,.05,1.94,.13,2.91,.2,.51,.04,1.03,.06,1.55,.11,.39,.04,.83-.05,1.21,.05,.47,.13,.55,.41,.46,.74"/></g></g><g id="Isolation_Mode"><g><path class="cls-2" d="M66.46,98.73v-11.34h1.53v4.32c.65-.88,1.61-1.39,2.69-1.39,2.14,0,3.65,1.68,3.65,4.32s-1.53,4.3-3.65,4.3c-1.1,0-2.07-.56-2.69-1.38v1.17h-1.53Zm1.53-2.35c.41,.66,1.34,1.19,2.28,1.19,1.53,0,2.48-1.22,2.48-2.94s-.95-2.96-2.48-2.96c-.93,0-1.87,.56-2.28,1.22v3.48Z"/><path class="cls-2" d="M76.54,100.56c.19,.08,.48,.14,.68,.14,.56,0,.94-.19,1.19-.8l.48-1.09-3.38-8.29h1.63l2.57,6.44,2.57-6.44h1.65l-4.05,9.77c-.53,1.29-1.43,1.75-2.62,1.77-.25,0-.71-.05-.95-.12l.24-1.38Z"/><path class="cls-2" d="M90.43,98.73v-11.34h4.78c2.33,0,3.62,1.6,3.62,3.48s-1.31,3.49-3.62,3.49h-3.08v4.37h-1.7Zm4.56-9.84h-2.86v3.98h2.86c1.22,0,2.09-.8,2.09-1.99s-.87-1.99-2.09-1.99Z"/><path class="cls-2" d="M104.33,90.31c2.46,0,3.99,1.92,3.99,4.44v.37h-6.49c.12,1.39,1.14,2.55,2.79,2.55,.87,0,1.82-.34,2.43-.97l.71,1c-.82,.8-1.97,1.22-3.3,1.22-2.45,0-4.25-1.73-4.25-4.32,0-2.38,1.72-4.3,4.11-4.3Zm-2.52,3.71h5.01c-.03-1.09-.76-2.45-2.5-2.45s-2.43,1.33-2.52,2.45Z"/><path class="cls-2" d="M115.74,98.73v-.9c-.65,.71-1.58,1.11-2.69,1.11-1.36,0-2.86-.92-2.86-2.72s1.48-2.69,2.86-2.69c1.1,0,2.06,.36,2.69,1.09v-1.36c0-1.02-.83-1.63-2.01-1.63-.93,0-1.73,.36-2.46,1.09l-.66-1.05c.92-.9,2.04-1.34,3.37-1.34,1.78,0,3.3,.78,3.3,2.87v5.54h-1.53Zm0-3.2c-.46-.61-1.26-.94-2.11-.94-1.1,0-1.89,.66-1.89,1.63s.78,1.63,1.89,1.63c.85,0,1.65-.32,2.11-.93v-1.39Z"/><path class="cls-2" d="M120.14,98.73v-8.21h1.53v1.26c.63-.82,1.6-1.45,2.69-1.45v1.55c-.15-.03-.32-.05-.53-.05-.76,0-1.8,.58-2.16,1.19v5.71h-1.53Z"/><path class="cls-2" d="M126.33,96.53c.56,.61,1.65,1.17,2.75,1.17s1.77-.48,1.77-1.17c0-.82-.94-1.09-1.99-1.33-1.39-.32-3.03-.7-3.03-2.46,0-1.31,1.12-2.43,3.13-2.43,1.41,0,2.43,.51,3.13,1.17l-.68,1.07c-.48-.58-1.39-1-2.43-1s-1.68,.41-1.68,1.07c0,.71,.88,.95,1.9,1.19,1.43,.32,3.13,.71,3.13,2.6,0,1.41-1.16,2.52-3.31,2.52-1.38,0-2.58-.42-3.42-1.28l.73-1.12Z"/><path class="cls-2" d="M134.19,94.61c0-2.36,1.6-4.3,4.15-4.3s4.15,1.94,4.15,4.3-1.58,4.32-4.15,4.32-4.15-1.94-4.15-4.32Zm6.7,0c0-1.55-.9-2.94-2.55-2.94s-2.55,1.39-2.55,2.94,.92,2.96,2.55,2.96,2.55-1.39,2.55-2.96Z"/><path class="cls-2" d="M150.39,98.73v-5.25c0-1.36-.7-1.8-1.75-1.8-.95,0-1.82,.58-2.26,1.19v5.86h-1.53v-8.21h1.53v1.16c.54-.66,1.63-1.36,2.91-1.36,1.73,0,2.63,.92,2.63,2.65v5.76h-1.53Z"/></g></g></svg>